<svg version="1.1" id="Layer_1" xmlns="http://www.w3.org/2000/svg" xmlns:xlink="http://www.w3.org/1999/xlink" x="0px" y="0px"
	 width="100%" viewBox="0 0 224 224" enable-background="new 0 0 224 224" xml:space="preserve">
<path fill="#FFFFFF" opacity="1.000000" stroke="none" 
	d="
M133.000000,225.000000 
	C88.666672,225.000000 44.833340,225.000000 1.000004,225.000000 
	C1.000000,151.666672 1.030555,78.333298 0.903694,5.000187 
	C0.897770,1.575728 1.575569,0.897574 5.000149,0.903637 
	C76.999924,1.031113 149.000031,1.031110 220.999802,0.903644 
	C224.424271,0.897582 225.102432,1.575534 225.096375,5.000136 
	C224.968887,76.999908 224.968903,149.000015 225.096375,220.999786 
	C225.102432,224.424225 224.427155,225.120499 220.999451,225.099976 
	C191.833801,224.925247 162.666687,225.000000 133.000000,225.000000 
z"/>
<path fill="#4F7838" opacity="1.000000" stroke="none" 
	d="
M156.243637,211.730469 
	C124.009171,215.754318 92.060516,216.229721 60.239788,210.076401 
	C58.777737,209.793671 57.327217,209.400238 55.911911,208.934937 
	C45.073067,205.371490 43.750538,203.112228 45.926155,191.384033 
	C46.467041,190.567017 46.526287,190.058044 46.316528,189.277557 
	C46.774975,186.626343 47.360645,184.209427 48.070152,181.437347 
	C50.654934,180.355118 52.712368,181.772034 54.912331,182.376663 
	C67.908554,185.948639 81.075920,186.732361 94.363968,184.566528 
	C103.191345,183.127762 108.586685,177.804001 110.530190,169.090698 
	C113.822128,154.331955 116.612923,139.472717 119.317566,124.596947 
	C120.189087,119.803551 117.862755,116.640572 114.099007,114.202621 
	C109.951485,111.516052 105.173172,110.686127 100.471466,109.644829 
	C98.863632,109.288734 97.134346,109.438568 95.363472,108.219727 
	C95.015617,107.794563 94.976784,107.630341 95.011703,107.223969 
	C95.196022,106.814529 95.306587,106.647247 95.229706,106.244720 
	C94.987862,104.607384 94.933456,103.205284 94.979584,101.392334 
	C95.296432,100.487114 95.581512,100.036247 96.279388,99.425537 
	C104.065605,98.050629 111.559998,98.980980 119.022850,98.661964 
	C121.590858,98.552193 124.841896,99.405159 125.847092,96.034958 
	C126.999092,92.172531 129.082642,88.015144 125.677376,84.228394 
	C123.008034,81.259995 120.290504,78.340179 117.804642,75.212402 
	C114.559845,71.129684 114.587555,70.183006 118.954933,67.442513 
	C124.817337,63.763905 130.119202,59.588161 133.358719,53.284927 
	C138.589920,43.106461 137.880188,33.150795 132.333435,23.308378 
	C131.204559,21.305246 128.673523,19.581816 130.774139,16.777611 
	C138.266815,21.122910 142.333282,27.619129 144.748627,35.705078 
	C144.374023,36.885876 144.449234,37.730656 144.869110,38.806965 
	C147.602585,51.998363 142.218384,61.915184 132.582474,70.587944 
	C138.794006,74.709976 144.589325,79.179688 150.956177,82.578857 
	C155.842010,85.187302 156.725159,88.365456 155.042816,93.032875 
	C154.369415,94.901123 153.639526,96.749001 152.695129,98.858109 
	C152.081558,99.150719 151.748596,99.288834 151.240112,99.697121 
	C145.698624,99.924019 140.363785,100.187729 135.050827,99.954109 
	C131.821335,99.812096 131.265961,100.995384 131.245361,103.952362 
	C131.108749,123.561127 140.144638,138.642059 154.201721,151.322372 
	C155.807877,152.771225 157.390945,154.276505 159.152573,155.517242 
	C172.575302,164.971069 179.123184,178.257843 180.862488,194.645691 
	C180.588440,195.467529 180.499588,195.905365 180.714890,196.670502 
	C180.950882,198.054291 181.018692,199.138367 180.998962,200.622345 
	C180.799637,201.171280 180.687851,201.320343 180.707520,201.716064 
	C179.332932,205.752106 175.731918,206.734894 172.472229,208.093124 
	C167.760971,210.056213 162.727814,210.843781 157.358582,211.825668 
	C156.794250,211.729294 156.630371,211.652145 156.243637,211.730469 
z"/>
<path fill="#6C9D41" opacity="1.000000" stroke="none" 
	d="
M130.942978,16.563791 
	C129.715958,18.578911 131.380005,19.575600 132.154114,20.637840 
	C143.324097,35.965458 138.637939,56.701462 122.792381,66.556458 
	C121.666191,67.256889 120.655197,68.229713 119.443993,68.689964 
	C115.761108,70.089447 115.926598,71.642097 118.593689,74.196899 
	C121.693344,77.166031 124.424545,80.527016 127.242676,83.781128 
	C131.210648,88.362968 127.682999,92.918396 126.925362,97.393433 
	C126.270935,101.258881 122.770538,99.905998 120.345345,99.948532 
	C112.533836,100.085510 104.718590,100.009399 96.434113,100.032227 
	C95.775703,100.172943 95.587959,100.296875 95.119972,100.232880 
	C88.527145,100.030945 82.214569,100.016945 75.436172,99.934906 
	C74.729141,99.664658 74.481430,99.470764 74.021652,99.169388 
	C73.323257,98.216248 72.720657,97.424065 72.354660,96.534531 
	C68.857094,88.033897 69.294807,86.637573 76.802628,81.710037 
	C82.072571,78.251244 87.328499,74.771065 92.584488,71.291077 
	C92.856834,71.110764 93.070862,70.842346 93.555855,70.385071 
	C86.108009,64.251602 81.256271,56.586285 80.565788,46.793732 
	C79.661171,33.964375 84.410225,23.561428 95.253830,16.649260 
	C105.891136,9.868593 117.118568,8.673354 128.403412,15.628057 
	C129.060333,16.032911 129.948746,16.062178 130.942978,16.563791 
z"/>
<path fill="#6C9D41" opacity="1.000000" stroke="none" 
	d="
M94.938225,108.362518 
	C101.999229,107.905365 108.564209,109.460419 114.630920,112.841019 
	C120.236969,115.964912 121.742485,119.846375 120.470016,126.186165 
	C117.898575,138.997772 115.368752,151.819641 113.018929,164.673309 
	C110.442215,178.768051 106.278442,184.136017 92.252068,186.183960 
	C77.570168,188.327621 62.765495,187.756470 48.507973,181.229553 
	C51.267300,171.311111 56.897804,163.421432 65.020668,157.108826 
	C78.200554,146.866196 89.291527,134.982437 93.291779,118.065125 
	C94.012909,115.015411 94.322426,111.868362 94.938225,108.362518 
z"/>
<path fill="#427127" opacity="1.000000" stroke="none" 
	d="
M145.136551,38.657257 
	C143.999191,38.438766 143.826248,37.567650 144.555420,36.278637 
	C144.905289,36.804688 145.039368,37.543365 145.136551,38.657257 
z"/>
<path fill="#417026" opacity="1.000000" stroke="none" 
	d="
M46.094475,189.358826 
	C46.821804,189.507111 47.040562,190.045822 46.275219,190.853516 
	C46.037979,190.547394 46.018810,190.110901 46.094475,189.358826 
z"/>
<path fill="#3C6D1E" opacity="1.000000" stroke="none" 
	d="
M180.932953,196.650696 
	C180.193161,196.587540 179.929703,196.082413 180.617126,195.208954 
	C180.869843,195.481934 180.926331,195.906555 180.932953,196.650696 
z"/>
<path fill="#649834" opacity="1.000000" stroke="none" 
	d="
M73.899719,99.315018 
	C74.153610,99.093636 74.448326,99.227737 74.835297,99.661377 
	C74.641357,99.770050 74.312355,99.673241 73.899719,99.315018 
z"/>
<path fill="#437128" opacity="1.000000" stroke="none" 
	d="
M151.324158,99.896927 
	C151.314194,99.644783 151.604141,99.419586 152.174500,99.152222 
	C152.177979,99.381340 151.901016,99.652611 151.324158,99.896927 
z"/>
<path fill="#3F6F24" opacity="1.000000" stroke="none" 
	d="
M94.892220,100.281021 
	C95.027145,100.045937 95.214569,100.046944 95.682724,100.048477 
	C95.890015,100.351158 95.729668,100.596504 95.281258,100.883270 
	C95.080116,100.981483 94.944717,100.517113 94.892220,100.281021 
z"/>
<path fill="#3F6F24" opacity="1.000000" stroke="none" 
	d="
M94.982269,106.255714 
	C95.159317,106.270256 95.276367,106.531036 95.239441,106.886818 
	C95.031059,106.821861 94.976662,106.661903 94.982269,106.255714 
z"/>
<path fill="#3C6D1E" opacity="1.000000" stroke="none" 
	d="
M180.926056,201.732880 
	C180.693832,201.795013 180.532547,201.637405 180.416550,201.451538 
	C180.392044,201.412262 180.533279,201.269516 180.754791,201.098328 
	C180.911423,201.022232 181.013123,201.503082 180.926056,201.732880 
z"/>
<path fill="#427127" opacity="1.000000" stroke="none" 
	d="
M156.260422,211.928375 
	C156.268799,211.766083 156.516800,211.646225 156.861481,211.666412 
	C156.958145,211.806442 156.500046,211.970825 156.260422,211.928375 
z"/>
<path fill="#94BB48" opacity="1.000000" stroke="none" 
	d="
M95.766327,23.821655 
	C100.275658,18.849636 105.673828,17.334692 111.809151,18.024069 
	C117.203926,18.630239 119.246445,22.813183 116.127533,27.234745 
	C111.283730,34.101624 104.530670,38.412628 96.699028,41.256023 
	C92.851646,42.652882 91.383911,40.908302 91.000710,37.472408 
	C90.427628,32.334190 92.695755,28.112747 95.766327,23.821655 
z"/>
</svg>