<svg version="1.1" id="Layer_1" xmlns="http://www.w3.org/2000/svg" xmlns:xlink="http://www.w3.org/1999/xlink" x="0px" y="0px"
	 width="100%" viewBox="0 0 301 167" enable-background="new 0 0 301 167" xml:space="preserve">
<path fill="#FEFFFF" opacity="1.000000" stroke="none" 
	d="
M175.000000,168.000000 
	C116.666672,168.000000 58.833347,168.000000 1.000015,168.000000 
	C1.000010,112.333344 1.000010,56.666695 1.000005,1.000031 
	C101.333305,1.000020 201.666611,1.000020 301.999939,1.000010 
	C301.999939,56.666637 301.999939,112.333275 301.999969,167.999954 
	C259.833344,168.000000 217.666672,168.000000 175.000000,168.000000 
M7.871834,59.464016 
	C7.878854,59.653816 7.885873,59.843620 7.636644,60.938068 
	C7.740407,76.952843 7.844171,92.967613 8.002766,109.601524 
	C8.305603,109.872505 8.608439,110.143486 9.579984,110.931007 
	C53.374256,110.949684 97.170067,111.146889 140.960907,110.768700 
	C146.650970,110.719559 152.758911,108.546074 157.879059,105.848854 
	C164.229462,102.503563 164.564468,95.846519 159.415009,90.814316 
	C157.070084,88.522781 154.295624,86.506699 151.391418,84.985207 
	C145.067245,81.672020 138.382385,79.029381 132.156998,75.553719 
	C129.374817,74.000427 125.619446,71.281044 125.356827,68.771553 
	C124.906235,64.466042 129.990936,64.594498 133.604874,63.420181 
	C133.761368,63.349136 133.917847,63.278095 134.994827,63.342655 
	C144.983246,63.321289 154.972717,63.373806 164.959473,63.233704 
	C167.971237,63.191456 169.046753,64.227028 168.996155,67.289093 
	C168.842148,76.609344 168.940125,85.933777 168.940948,95.256577 
	C168.942001,107.099518 172.550171,110.845627 184.317184,110.869461 
	C210.121262,110.921730 235.925812,110.827141 261.729370,110.954018 
	C265.300720,110.971588 267.570038,109.693825 269.646210,106.899590 
	C277.286530,96.616821 285.129181,86.484497 292.870483,76.276443 
	C293.726440,75.147720 294.420624,73.896278 295.368561,72.424217 
	C290.106720,71.210770 286.505981,72.134293 283.479919,76.579819 
	C278.712372,83.583717 273.304413,90.152679 268.143951,96.887665 
	C266.075958,99.586617 263.945343,102.237587 261.522186,105.318604 
	C254.350815,95.219856 247.512619,85.810890 240.946640,76.215645 
	C238.853760,73.157188 236.582855,71.799377 232.771454,71.875542 
	C220.789764,72.114975 208.798721,71.857544 196.814850,72.033844 
	C193.534698,72.082108 192.477615,71.085258 192.479874,67.802498 
	C192.481888,64.859276 191.602875,61.915447 190.930740,58.455315 
	C190.624054,58.314201 190.317368,58.173088 189.095581,57.802780 
	C166.281967,57.850368 143.463348,57.656944 120.658592,58.130939 
	C115.557289,58.236973 110.109329,59.902664 105.518410,62.227547 
	C97.845856,66.112999 97.380241,73.695343 104.073364,79.196434 
	C107.119408,81.699989 110.695000,83.629509 114.210686,85.476158 
	C120.681274,88.874908 127.421608,91.783447 133.741211,95.430519 
	C135.401245,96.388535 137.306717,100.194473 136.695465,101.142464 
	C135.369339,103.199112 132.512756,105.479401 130.244186,105.519257 
	C116.652931,105.758064 103.050858,105.394508 89.452705,105.211678 
	C87.722763,105.188423 85.994484,105.041618 83.104797,104.891922 
	C85.813667,102.541077 87.704590,101.058167 89.414391,99.389656 
	C98.066559,90.946411 98.716606,78.200134 89.859238,70.150291 
	C85.369392,66.069786 79.390022,62.835518 73.530846,61.197220 
	C52.683624,55.368092 31.231636,58.210079 9.411296,57.940643 
	C9.009929,58.294880 8.608561,58.649120 7.871834,59.464016 
z"/>
<path fill="#199FDB" opacity="1.000000" stroke="none" 
	d="
M9.997511,58.005936 
	C31.231636,58.210079 52.683624,55.368092 73.530846,61.197220 
	C79.390022,62.835518 85.369392,66.069786 89.859238,70.150291 
	C98.716606,78.200134 98.066559,90.946411 89.414391,99.389656 
	C87.704590,101.058167 85.813667,102.541077 83.104797,104.891922 
	C85.994484,105.041618 87.722763,105.188423 89.452705,105.211678 
	C103.050858,105.394508 116.652931,105.758064 130.244186,105.519257 
	C132.512756,105.479401 135.369339,103.199112 136.695465,101.142464 
	C137.306717,100.194473 135.401245,96.388535 133.741211,95.430519 
	C127.421608,91.783447 120.681274,88.874908 114.210686,85.476158 
	C110.695000,83.629509 107.119408,81.699989 104.073364,79.196434 
	C97.380241,73.695343 97.845856,66.112999 105.518410,62.227547 
	C110.109329,59.902664 115.557289,58.236973 120.658592,58.130939 
	C143.463348,57.656944 166.281967,57.850368 189.673386,58.138481 
	C190.538315,58.640087 190.825424,58.805988 191.112549,58.971889 
	C191.602875,61.915447 192.481888,64.859276 192.479874,67.802498 
	C192.477615,71.085258 193.534698,72.082108 196.814850,72.033844 
	C208.798721,71.857544 220.789764,72.114975 232.771454,71.875542 
	C236.582855,71.799377 238.853760,73.157188 240.946640,76.215645 
	C247.512619,85.810890 254.350815,95.219856 261.522186,105.318604 
	C263.945343,102.237587 266.075958,99.586617 268.143951,96.887665 
	C273.304413,90.152679 278.712372,83.583717 283.479919,76.579819 
	C286.505981,72.134293 290.106720,71.210770 295.368561,72.424217 
	C294.420624,73.896278 293.726440,75.147720 292.870483,76.276443 
	C285.129181,86.484497 277.286530,96.616821 269.646210,106.899590 
	C267.570038,109.693825 265.300720,110.971588 261.729370,110.954018 
	C235.925812,110.827141 210.121262,110.921730 184.317184,110.869461 
	C172.550171,110.845627 168.942001,107.099518 168.940948,95.256577 
	C168.940125,85.933777 168.842148,76.609344 168.996155,67.289093 
	C169.046753,64.227028 167.971237,63.191456 164.959473,63.233704 
	C154.972717,63.373806 144.983246,63.321289 134.426468,63.080853 
	C133.602707,63.002312 133.347290,63.185577 133.091888,63.368843 
	C129.990936,64.594498 124.906235,64.466042 125.356827,68.771553 
	C125.619446,71.281044 129.374817,74.000427 132.156998,75.553719 
	C138.382385,79.029381 145.067245,81.672020 151.391418,84.985207 
	C154.295624,86.506699 157.070084,88.522781 159.415009,90.814316 
	C164.564468,95.846519 164.229462,102.503563 157.879059,105.848854 
	C152.758911,108.546074 146.650970,110.719559 140.960907,110.768700 
	C97.170067,111.146889 53.374256,110.949684 9.177527,110.377235 
	C8.499359,109.543106 8.223648,109.262749 7.947935,108.982391 
	C7.844171,92.967613 7.740407,76.952843 7.998158,60.379036 
	C8.551822,59.547119 8.743972,59.274227 9.167424,58.899948 
	C9.598321,58.534351 9.797915,58.270142 9.997511,58.005936 
M197.185822,106.081306 
	C197.477646,105.992317 197.769470,105.903320 198.978928,105.646126 
	C211.865936,105.646126 224.752960,105.646126 238.774109,105.646126 
	C234.976013,100.646637 231.357178,97.033379 229.107971,92.707932 
	C222.215179,79.452393 211.521133,74.931358 197.254318,77.514877 
	C196.931976,77.573250 196.587479,77.555336 196.258301,77.522614 
	C193.191132,77.217743 192.219391,78.646278 192.316132,81.628365 
	C192.499374,87.276611 192.424896,92.935806 192.348068,98.588959 
	C192.300339,102.101181 193.259186,104.804535 197.185822,106.081306 
M72.926994,82.797745 
	C72.085403,75.531815 68.052719,70.491669 61.638332,67.440636 
	C51.722023,62.723892 41.168774,62.670582 30.378586,63.339386 
	C30.378586,77.455032 30.378586,91.140053 30.378586,104.928741 
	C41.132851,105.493042 51.428204,105.934502 61.128078,101.169159 
	C68.455452,97.569374 72.834549,92.053612 72.926994,82.797745 
z"/>
<path fill="#0299D9" opacity="1.000000" stroke="none" 
	d="
M9.704403,57.973289 
	C9.797915,58.270142 9.598321,58.534351 8.985614,58.900711 
	C8.572502,59.002865 8.207192,59.003357 8.207192,59.003357 
	C8.608561,58.649120 9.009929,58.294880 9.704403,57.973289 
z"/>
<path fill="#0099D9" opacity="1.000000" stroke="none" 
	d="
M191.021637,58.713600 
	C190.825424,58.805988 190.538315,58.640087 190.130936,58.253082 
	C190.317368,58.173088 190.624054,58.314201 191.021637,58.713600 
z"/>
<path fill="#0099D9" opacity="1.000000" stroke="none" 
	d="
M8.039514,59.233688 
	C8.207192,59.003357 8.572502,59.002865 8.754313,59.002102 
	C8.743972,59.274227 8.551822,59.547119 8.126282,59.926716 
	C7.885873,59.843620 7.878854,59.653816 8.039514,59.233688 
z"/>
<path fill="#0099D9" opacity="1.000000" stroke="none" 
	d="
M133.348389,63.394512 
	C133.347290,63.185577 133.602707,63.002312 133.966217,63.013054 
	C133.917847,63.278095 133.761368,63.349136 133.348389,63.394512 
z"/>
<path fill="#0099D9" opacity="1.000000" stroke="none" 
	d="
M7.975351,109.291962 
	C8.223648,109.262749 8.499359,109.543106 8.843174,110.118958 
	C8.608439,110.143486 8.305603,109.872505 7.975351,109.291962 
z"/>
<path fill="#FDFEFF" opacity="1.000000" stroke="none" 
	d="
M72.948746,83.215897 
	C72.834549,92.053612 68.455452,97.569374 61.128078,101.169159 
	C51.428204,105.934502 41.132851,105.493042 30.378586,104.928741 
	C30.378586,91.140053 30.378586,77.455032 30.378586,63.339386 
	C41.168774,62.670582 51.722023,62.723892 61.638332,67.440636 
	C68.052719,70.491669 72.085403,75.531815 72.948746,83.215897 
z"/>
<path fill="#F7FBFE" opacity="1.000000" stroke="none" 
	d="
M197.085449,105.655258 
	C193.259186,104.804535 192.300339,102.101181 192.348068,98.588959 
	C192.424896,92.935806 192.499374,87.276611 192.316132,81.628365 
	C192.219391,78.646278 193.191132,77.217743 196.258301,77.522614 
	C196.587479,77.555336 196.931976,77.573250 197.254318,77.514877 
	C211.521133,74.931358 222.215179,79.452393 229.107971,92.707932 
	C231.357178,97.033379 234.976013,100.646637 238.774109,105.646126 
	C224.752960,105.646126 211.865936,105.646126 198.286469,105.627045 
	C197.424500,105.623726 197.254974,105.639488 197.085449,105.655258 
z"/>
<path fill="#0099D9" opacity="1.000000" stroke="none" 
	d="
M197.135635,105.868286 
	C197.254974,105.639488 197.424500,105.623726 197.827667,105.711143 
	C197.769470,105.903320 197.477646,105.992317 197.135635,105.868286 
z"/>
</svg>