<svg version="1.1" id="Layer_1" xmlns="http://www.w3.org/2000/svg" xmlns:xlink="http://www.w3.org/1999/xlink" x="0px" y="0px"
	 width="100%" viewBox="0 0 225 225" enable-background="new 0 0 225 225" xml:space="preserve">
<path fill="#000000" opacity="1.000000" stroke="none" 
	d="
M125.000000,226.000000 
	C83.333336,226.000000 42.166672,226.000000 1.000005,226.000000 
	C1.000004,151.000000 1.000004,76.000015 1.000002,1.000016 
	C75.999992,1.000010 150.999985,1.000010 225.999969,1.000005 
	C225.999985,75.999985 225.999985,150.999969 226.000000,225.999969 
	C192.500000,226.000000 159.000000,226.000000 125.000000,226.000000 
M100.677345,127.532234 
	C101.078606,127.075714 101.479866,126.619186 102.028305,126.890755 
	C109.344307,147.574677 116.620903,168.272781 124.054955,188.914185 
	C124.618172,190.478043 126.180420,192.671432 127.480972,192.822037 
	C136.900238,193.912933 146.379242,194.474747 155.822052,195.383545 
	C158.741714,195.664536 158.833466,194.214645 158.726349,191.197266 
	C158.765045,178.110214 158.817932,165.023163 158.838333,151.936096 
	C158.857529,139.611084 158.842606,127.286003 158.842499,114.960953 
	C158.842285,88.811859 158.759995,62.662251 158.926025,36.514214 
	C158.952286,32.377850 157.748093,30.980516 153.577301,31.139402 
	C145.926834,31.430849 138.256821,31.280878 130.596252,31.196680 
	C127.877502,31.166796 126.183800,31.672789 126.222122,34.981590 
	C126.422638,52.295921 126.482620,69.611877 126.379257,87.837097 
	C126.469238,91.536530 126.559227,95.235970 126.320808,99.470207 
	C125.922295,99.932114 125.523773,100.394028 124.975830,100.125809 
	C117.358383,78.590347 109.798622,57.033985 102.015091,35.558716 
	C101.385445,33.821487 99.274330,31.463451 97.761185,31.395069 
	C88.986374,30.998524 80.183624,31.270153 71.392166,31.163641 
	C68.509148,31.128712 67.957405,32.463608 68.265228,35.800442 
	C68.228577,87.869545 68.188332,139.938644 68.180214,192.007751 
	C68.180046,193.085846 68.552406,194.164001 68.793297,195.471878 
	C79.477753,194.539841 89.834702,193.636368 100.419029,192.713058 
	C100.419029,174.909470 100.419029,157.487015 100.624146,139.154449 
	C100.532059,135.457932 100.439980,131.761429 100.677345,127.532234 
z"/>
<path fill="#E40914" opacity="1.000000" stroke="none" 
	d="
M158.477829,192.120911 
	C158.833466,194.214645 158.741714,195.664536 155.822052,195.383545 
	C146.379242,194.474747 136.900238,193.912933 127.480972,192.822037 
	C126.180420,192.671432 124.618172,190.478043 124.054955,188.914185 
	C116.620903,168.272781 109.344307,147.574677 101.890411,126.160706 
	C100.036674,120.752724 98.297577,116.083168 96.609200,111.395340 
	C90.756081,95.143951 84.920593,78.886215 79.069664,62.460701 
	C79.060928,62.290504 78.970985,61.961746 78.900658,61.671867 
	C78.557053,60.848434 78.283775,60.314884 78.009521,59.541393 
	C77.857689,58.851677 77.706841,58.401897 77.443130,57.634327 
	C77.187225,56.890877 77.044167,56.465221 76.843567,55.675308 
	C75.536415,52.190216 74.286804,49.069374 73.016510,45.970917 
	C72.995834,45.993305 73.051987,46.017017 73.033028,45.685783 
	C72.683495,44.549236 72.352913,43.743927 72.011482,42.968872 
	C72.000633,42.999123 72.060699,43.022018 72.042320,42.709511 
	C71.966454,41.985310 71.908966,41.573616 71.746941,40.834862 
	C70.598495,38.630257 69.554573,36.752716 68.510651,34.875179 
	C67.957405,32.463608 68.509148,31.128712 71.392166,31.163641 
	C80.183624,31.270153 88.986374,30.998524 97.761185,31.395069 
	C99.274330,31.463451 101.385445,33.821487 102.015091,35.558716 
	C109.798622,57.033985 117.358383,78.590347 125.040207,100.864853 
	C127.082870,106.888611 129.108154,112.156288 131.030609,117.461235 
	C136.696304,133.095444 142.321259,148.744415 147.958405,164.551941 
	C147.954651,164.716263 148.030884,165.036026 148.059204,165.235596 
	C148.087509,165.435165 148.183533,165.826691 148.273453,166.185638 
	C150.566727,172.383545 152.770065,178.222488 154.986603,184.032089 
	C154.999786,184.002747 154.941360,183.975800 154.958313,184.288589 
	C155.030106,185.013733 155.084915,185.426071 155.243851,186.165588 
	C156.391251,188.368820 157.434540,190.244858 158.477829,192.120911 
z"/>
<path fill="#B0060F" opacity="1.000000" stroke="none" 
	d="
M158.602081,191.659088 
	C157.434540,190.244858 156.391251,188.368820 155.310089,185.982941 
	C155.161942,184.974014 155.051651,184.474899 154.941360,183.975800 
	C154.941360,183.975800 154.999786,184.002747 154.983932,183.609955 
	C152.982193,174.669846 151.242630,166.056183 148.962219,157.588165 
	C143.143738,135.982056 137.162201,114.418549 131.003754,92.907326 
	C130.364883,90.675804 128.101227,88.909454 126.591461,86.927269 
	C126.482620,69.611877 126.422638,52.295921 126.222122,34.981590 
	C126.183800,31.672789 127.877502,31.166796 130.596252,31.196680 
	C138.256821,31.280878 145.926834,31.430849 153.577301,31.139402 
	C157.748093,30.980516 158.952286,32.377850 158.926025,36.514214 
	C158.759995,62.662251 158.842285,88.811859 158.842499,114.960953 
	C158.842606,127.286003 158.857529,139.611084 158.838333,151.936096 
	C158.817932,165.023163 158.765045,178.110214 158.602081,191.659088 
z"/>
<path fill="#AE060F" opacity="1.000000" stroke="none" 
	d="
M68.387939,35.337811 
	C69.554573,36.752716 70.598495,38.630257 71.683014,41.017826 
	C71.835983,42.025909 71.948341,42.523964 72.060699,43.022018 
	C72.060699,43.022018 72.000633,42.999123 72.055710,43.295082 
	C72.424522,44.399696 72.738251,45.208359 73.051987,46.017017 
	C73.051987,46.017017 72.995834,45.993305 73.009048,46.393425 
	C73.962906,49.861618 74.903549,52.929699 75.876602,56.331215 
	C75.934425,57.110153 75.959831,57.555660 75.887367,58.298714 
	C76.542160,61.065880 77.294830,63.535507 78.064835,66.319519 
	C78.105415,67.052307 78.128677,67.470703 78.149673,68.293655 
	C79.086327,72.386925 79.965950,76.091927 80.974167,79.761597 
	C86.082260,98.353806 91.153778,116.956894 96.467094,135.490524 
	C96.971046,137.248383 99.063858,138.550735 100.419029,140.064560 
	C100.419029,157.487015 100.419029,174.909470 100.419029,192.713058 
	C89.834702,193.636368 79.477753,194.539841 68.793297,195.471878 
	C68.552406,194.164001 68.180046,193.085846 68.180214,192.007751 
	C68.188332,139.938644 68.228577,87.869545 68.387939,35.337811 
z"/>
<path fill="#9E050E" opacity="1.000000" stroke="none" 
	d="
M126.485359,87.382187 
	C128.101227,88.909454 130.364883,90.675804 131.003754,92.907326 
	C137.162201,114.418549 143.143738,135.982056 148.962219,157.588165 
	C151.242630,166.056183 152.982193,174.669846 154.970749,183.639313 
	C152.770065,178.222488 150.566727,172.383545 148.272125,166.084610 
	C148.166016,165.420410 148.116013,165.224213 148.030884,165.036026 
	C148.030884,165.036026 147.954651,164.716263 147.954529,164.102173 
	C147.692001,161.687271 147.653839,159.818390 147.131348,158.096481 
	C143.318954,145.532318 139.642014,132.919067 135.442047,120.483513 
	C132.964478,113.147690 129.609573,106.108177 126.649216,98.935402 
	C126.559227,95.235970 126.469238,91.536530 126.485359,87.382187 
z"/>
<path fill="#9E050E" opacity="1.000000" stroke="none" 
	d="
M100.521591,139.609497 
	C99.063858,138.550735 96.971046,137.248383 96.467094,135.490524 
	C91.153778,116.956894 86.082260,98.353806 80.974167,79.761597 
	C79.965950,76.091927 79.086327,72.386925 78.417847,68.500328 
	C79.933914,71.169861 81.419945,73.958900 82.384544,76.917923 
	C87.183739,91.639915 91.780243,106.428192 96.620354,121.136444 
	C97.427483,123.589211 99.083916,125.762489 100.347900,128.064911 
	C100.439980,131.761429 100.532059,135.457932 100.521591,139.609497 
z"/>
<path fill="#83040C" opacity="1.000000" stroke="none" 
	d="
M100.512619,127.798569 
	C99.083916,125.762489 97.427483,123.589211 96.620354,121.136444 
	C91.780243,106.428192 87.183739,91.639915 82.384544,76.917923 
	C81.419945,73.958900 79.933914,71.169861 78.420120,68.095772 
	C78.128677,67.470703 78.105415,67.052307 78.223579,66.005890 
	C78.602806,64.462204 78.840599,63.546551 79.078400,62.630898 
	C84.920593,78.886215 90.756081,95.143951 96.609200,111.395340 
	C98.297577,116.083168 100.036674,120.752724 101.816818,125.796661 
	C101.479866,126.619186 101.078606,127.075714 100.512619,127.798569 
z"/>
<path fill="#83040C" opacity="1.000000" stroke="none" 
	d="
M126.485016,99.202805 
	C129.609573,106.108177 132.964478,113.147690 135.442047,120.483513 
	C139.642014,132.919067 143.318954,145.532318 147.131348,158.096481 
	C147.653839,159.818390 147.692001,161.687271 147.958282,163.937851 
	C142.321259,148.744415 136.696304,133.095444 131.030609,117.461235 
	C129.108154,112.156288 127.082870,106.888611 125.114914,101.229919 
	C125.523773,100.394028 125.922295,99.932114 126.485016,99.202805 
z"/>
<path fill="#9E050E" opacity="1.000000" stroke="none" 
	d="
M75.844193,55.997780 
	C74.903549,52.929699 73.962906,49.861618 73.029724,46.371037 
	C74.286804,49.069374 75.536415,52.190216 76.579468,55.663536 
	C76.196671,56.009937 76.020432,56.003857 75.844193,55.997780 
z"/>
<path fill="#9E050E" opacity="1.000000" stroke="none" 
	d="
M79.069664,62.460701 
	C78.840599,63.546551 78.602806,64.462204 78.206253,65.691498 
	C77.294830,63.535507 76.542160,61.065880 76.280045,58.283813 
	C77.032394,57.964954 77.294189,57.958538 77.555984,57.952122 
	C77.706841,58.401897 77.857689,58.851677 78.106339,59.827637 
	C78.459747,60.889797 78.715363,61.425774 78.970985,61.961746 
	C78.970985,61.961746 79.060928,62.290504 79.069664,62.460701 
z"/>
<path fill="#9E050E" opacity="1.000000" stroke="none" 
	d="
M73.033028,45.685783 
	C72.738251,45.208359 72.424522,44.399696 72.066559,43.264828 
	C72.352913,43.743927 72.683495,44.549236 73.033028,45.685783 
z"/>
<path fill="#9E050E" opacity="1.000000" stroke="none" 
	d="
M154.958313,184.288589 
	C155.051651,184.474899 155.161942,184.974014 155.205994,185.655762 
	C155.084915,185.426071 155.030106,185.013733 154.958313,184.288589 
z"/>
<path fill="#83040C" opacity="1.000000" stroke="none" 
	d="
M78.900658,61.671867 
	C78.715363,61.425774 78.459747,60.889797 78.107315,60.067577 
	C78.283775,60.314884 78.557053,60.848434 78.900658,61.671867 
z"/>
<path fill="#83040C" opacity="1.000000" stroke="none" 
	d="
M77.443130,57.634327 
	C77.294189,57.958538 77.032394,57.964954 76.377914,57.986271 
	C75.959831,57.555660 75.934425,57.110153 75.876602,56.331215 
	C76.020432,56.003857 76.196671,56.009937 76.637009,56.027790 
	C77.044167,56.465221 77.187225,56.890877 77.443130,57.634327 
z"/>
<path fill="#9E050E" opacity="1.000000" stroke="none" 
	d="
M72.042320,42.709511 
	C71.948341,42.523964 71.835983,42.025909 71.787552,41.344891 
	C71.908966,41.573616 71.966454,41.985310 72.042320,42.709511 
z"/>
<path fill="#83040C" opacity="1.000000" stroke="none" 
	d="
M148.059204,165.235596 
	C148.116013,165.224213 148.166016,165.420410 148.182220,165.725647 
	C148.183533,165.826691 148.087509,165.435165 148.059204,165.235596 
z"/>
</svg>