<svg version="1.1" id="Layer_1" xmlns="http://www.w3.org/2000/svg" xmlns:xlink="http://www.w3.org/1999/xlink" x="0px" y="0px"
	 width="100%" viewBox="0 0 225 225" enable-background="new 0 0 225 225" xml:space="preserve">
<path fill="#FEFFFE" opacity="1.000000" stroke="none" 
	d="
M122.000000,226.000000 
	C81.333336,226.000000 41.166672,226.000000 1.000005,226.000000 
	C1.000004,151.000000 1.000004,76.000015 1.000002,1.000015 
	C75.999992,1.000010 150.999985,1.000010 225.999969,1.000005 
	C225.999985,75.999985 225.999985,150.999969 226.000000,225.999969 
	C191.500000,226.000000 157.000000,226.000000 122.000000,226.000000 
M94.575584,13.306377 
	C39.299873,25.139231 5.020075,73.667183 12.856410,128.991547 
	C20.824833,185.248444 75.492615,224.256531 131.994507,213.753738 
	C178.994278,205.017227 211.465286,166.123703 214.982727,122.348869 
	C219.312485,68.464836 183.729919,27.349369 141.867813,15.671538 
	C133.613586,13.368943 125.366020,11.304000 116.466827,12.587273 
	C109.543884,13.585566 102.394905,13.016402 94.575584,13.306377 
z"/>
<path fill="#1ED660" opacity="1.000000" stroke="none" 
	d="
M94.960983,13.225129 
	C102.394905,13.016402 109.543884,13.585566 116.466827,12.587273 
	C125.366020,11.304000 133.613586,13.368943 141.867813,15.671538 
	C183.729919,27.349369 219.312485,68.464836 214.982727,122.348869 
	C211.465286,166.123703 178.994278,205.017227 131.994507,213.753738 
	C75.492615,224.256531 20.824833,185.248444 12.856410,128.991547 
	C5.020075,73.667183 39.299873,25.139231 94.960983,13.225129 
M186.148361,99.485458 
	C189.785797,92.638924 188.456329,88.224327 181.403412,84.311668 
	C159.819275,72.337677 136.261826,67.452629 111.977951,66.101723 
	C99.645782,65.415703 87.198059,64.491684 74.851830,67.775269 
	C67.450386,69.743744 59.554085,69.775024 52.026215,71.367302 
	C45.209122,72.809242 42.007938,77.708046 43.319298,83.102173 
	C44.734848,88.924850 49.704502,91.003151 56.819107,89.827637 
	C68.923538,87.827682 81.080544,85.404457 93.286438,84.909531 
	C121.429893,83.768387 148.710403,87.886314 173.804565,101.859787 
	C178.095383,104.249084 182.131409,103.541809 186.148361,99.485458 
M157.950760,113.498596 
	C147.190613,110.089111 136.556595,106.172798 125.625000,103.452202 
	C118.593567,101.702255 111.139999,101.400177 103.846420,101.038582 
	C98.926498,100.794670 93.860580,102.347046 89.026512,101.749222 
	C77.439812,100.316315 66.625038,103.496452 55.789757,106.408379 
	C49.466324,108.107773 47.656845,116.292786 52.832516,119.703751 
	C55.291759,121.324493 59.537819,121.589905 62.542801,120.808792 
	C83.604721,115.333977 104.678185,115.379158 125.866432,119.672409 
	C138.358444,122.203575 150.121155,126.632660 161.189529,132.998672 
	C165.928177,135.724121 170.640854,134.494583 172.862900,130.430481 
	C175.056885,126.417709 173.780945,122.211540 169.205048,119.453209 
	C165.790848,117.395126 162.159668,115.697044 157.950760,113.498596 
M145.285400,157.190704 
	C147.318542,158.328629 149.253967,159.721451 151.406937,160.546738 
	C154.933670,161.898651 158.479568,161.943039 160.435654,157.973587 
	C162.205917,154.381210 160.756729,151.540253 157.528976,149.493027 
	C156.686829,148.958878 155.812805,148.470139 154.928833,148.007523 
	C141.278687,140.863373 127.033615,136.544312 111.471764,134.871674 
	C93.771713,132.969223 76.740463,135.024994 59.631969,138.449387 
	C55.674843,139.241425 53.465111,142.067154 54.476234,146.170990 
	C55.481209,150.249893 58.631382,151.477646 62.633076,150.772980 
	C69.015640,149.649063 75.364021,148.173080 81.795311,147.512497 
	C103.492744,145.283920 124.691673,146.859634 145.285400,157.190704 
z"/>
<path fill="#191514" opacity="1.000000" stroke="none" 
	d="
M185.905945,99.796402 
	C182.131409,103.541809 178.095383,104.249084 173.804565,101.859787 
	C148.710403,87.886314 121.429893,83.768387 93.286438,84.909531 
	C81.080544,85.404457 68.923538,87.827682 56.819107,89.827637 
	C49.704502,91.003151 44.734848,88.924850 43.319298,83.102173 
	C42.007938,77.708046 45.209122,72.809242 52.026215,71.367302 
	C59.554085,69.775024 67.450386,69.743744 74.851830,67.775269 
	C87.198059,64.491684 99.645782,65.415703 111.977951,66.101723 
	C136.261826,67.452629 159.819275,72.337677 181.403412,84.311668 
	C188.456329,88.224327 189.785797,92.638924 185.905945,99.796402 
z"/>
<path fill="#191514" opacity="1.000000" stroke="none" 
	d="
M158.287933,113.668617 
	C162.159668,115.697044 165.790848,117.395126 169.205048,119.453209 
	C173.780945,122.211540 175.056885,126.417709 172.862900,130.430481 
	C170.640854,134.494583 165.928177,135.724121 161.189529,132.998672 
	C150.121155,126.632660 138.358444,122.203575 125.866432,119.672409 
	C104.678185,115.379158 83.604721,115.333977 62.542801,120.808792 
	C59.537819,121.589905 55.291759,121.324493 52.832516,119.703751 
	C47.656845,116.292786 49.466324,108.107773 55.789757,106.408379 
	C66.625038,103.496452 77.439812,100.316315 89.026512,101.749222 
	C93.860580,102.347046 98.926498,100.794670 103.846420,101.038582 
	C111.139999,101.400177 118.593567,101.702255 125.625000,103.452202 
	C136.556595,106.172798 147.190613,110.089111 158.287933,113.668617 
z"/>
<path fill="#191515" opacity="1.000000" stroke="none" 
	d="
M144.936401,157.045563 
	C124.691673,146.859634 103.492744,145.283920 81.795311,147.512497 
	C75.364021,148.173080 69.015640,149.649063 62.633076,150.772980 
	C58.631382,151.477646 55.481209,150.249893 54.476234,146.170990 
	C53.465111,142.067154 55.674843,139.241425 59.631969,138.449387 
	C76.740463,135.024994 93.771713,132.969223 111.471764,134.871674 
	C127.033615,136.544312 141.278687,140.863373 154.928833,148.007523 
	C155.812805,148.470139 156.686829,148.958878 157.528976,149.493027 
	C160.756729,151.540253 162.205917,154.381210 160.435654,157.973587 
	C158.479568,161.943039 154.933670,161.898651 151.406937,160.546738 
	C149.253967,159.721451 147.318542,158.328629 144.936401,157.045563 
z"/>
</svg>